<?xml version="1.0" encoding="utf-8"?><svg height="512" viewBox="0 0 24 24" width="512" xmlns="http://www.w3.org/2000/svg"><path d="M11.894 24a.5.5 0 01-.491-.597l.707-3.535a.49.49 0 01.137-.256l7.778-7.778a1.503 1.503 0 012.121 0l1.414 1.414a1.501 1.501 0 010 2.121l-7.778 7.778a.497.497 0 01-.256.137l-3.535.707a.53.53 0 01-.097.009zm1.168-3.789l-.53 2.651 2.651-.53 7.671-7.671a.5.5 0 000-.707L21.44 12.54a.5.5 0 00-.707 0zm2.367 2.582h.01zM9.5 21h-7A2.502 2.502 0 010 18.5v-13C0 4.121 1.121 3 2.5 3h2a.5.5 0 010 1h-2C1.673 4 1 4.673 1 5.5v13c0 .827.673 1.5 1.5 1.5h7a.5.5 0 010 1zM16.5 12a.5.5 0 01-.5-.5v-6c0-.827-.673-1.5-1.5-1.5h-2a.5.5 0 010-1h2C15.879 3 17 4.121 17 5.5v6a.5.5 0 01-.5.5z"/><path d="M11.5 6h-6C4.673 6 4 5.327 4 4.5v-2a.5.5 0 01.5-.5h1.55C6.282.86 7.293 0 8.5 0s2.218.86 2.45 2h1.55a.5.5 0 01.5.5v2c0 .827-.673 1.5-1.5 1.5zM5 3v1.5c0 .275.225.5.5.5h6c.275 0 .5-.225.5-.5V3h-1.5a.5.5 0 01-.5-.5C10 1.673 9.327 1 8.5 1S7 1.673 7 2.5a.5.5 0 01-.5.5zM13.5 9h-10a.5.5 0 010-1h10a.5.5 0 010 1zM13.5 12h-10a.5.5 0 010-1h10a.5.5 0 010 1zM13.5 15h-10a.5.5 0 010-1h10a.5.5 0 010 1z"/></svg>