<?xml version="1.0" encoding="utf-8"?><svg height="512" width="512" xmlns="http://www.w3.org/2000/svg" viewBox="0 0 512 512"><path d="M32 456c.025 22.081 17.919 39.975 40 40h296c61.851.006 111.996-50.129 112.002-111.98.004-43.264-24.912-82.66-64.002-101.199V120a8 8 0 00-2.343-5.657l-96-96A8 8 0 00312 16H72c-22.081.025-39.975 17.919-40 40zm432-72c0 53.019-42.981 96-96 96s-96-42.981-96-96 42.981-96 96-96c52.995.06 95.94 43.005 96 96zM320 43.313L388.687 112H344c-13.249-.015-23.985-10.751-24-24zM48 56c.015-13.248 10.752-23.985 24-24h232v56c.025 22.081 17.919 39.975 40 40h56v148.666c-59.265-17.683-121.643 16.025-139.327 75.289-14.627 49.023 5.828 101.725 49.696 128.045H72c-13.248-.015-23.985-10.752-24-24z"/><path d="M160 168a8 8 0 008 8h192a8 8 0 000-16H168a8 8 0 00-8 8zM88 224h160a8 8 0 000-16H88a8 8 0 000 16zM280 256h-64a8 8 0 000 16h64a8 8 0 000-16zM88 320h144a8 8 0 000-16H88a8 8 0 000 16zM88 176h48a8 8 0 000-16H88a8 8 0 000 16zM360 208h-80a8 8 0 000 16h80a8 8 0 000-16zM88 272h96a8 8 0 000-16H88a8 8 0 000 16zM216 400h-32a8 8 0 000 16h32a8 8 0 000-16zM88 416h64a8 8 0 000-16H88a8 8 0 000 16zM88 368h48a8 8 0 000-16H88a8 8 0 000 16zM88 128h96a8 8 0 000-16H88a8 8 0 000 16zM216 352h-48a8 8 0 000 16h48a8 8 0 000-16zM322.879 329.854a8 8 0 00-1.025 11.268s30.333 36.449 39.97 47.964c.971 1.161 2.556 2.512 5.331 2.87.28.036.563.044.845.044h56a8 8 0 000-16h-52.253l-37.6-45.122a8 8 0 00-11.268-1.024z"/></svg>