<svg display="none" xmlns="http://www.w3.org/2000/svg" xmlns:xlink="http://www.w3.org/1999/xlink">
  <symbol id="categories" viewBox="0 0 512 512">
    <g><path d="M128,40a88,88,0,1,0,88,88A88.1,88.1,0,0,0,128,40Zm0,160a72,72,0,1,1,72-72A72.081,72.081,0,0,1,128,200Z"/><path d="M144,112a8,8,0,0,0,0-16h-8a8,8,0,0,0-16,0h-8a8,8,0,0,0-8,8v24a8,8,0,0,0,8,8h24v8H112a8,8,0,0,0,0,16h8a8,8,0,0,0,16,0h8a8,8,0,0,0,8-8V128a8,8,0,0,0-8-8H120v-8Z"/><path d="M220,8H36A28.032,28.032,0,0,0,8,36V220a28.032,28.032,0,0,0,28,28H220a28.032,28.032,0,0,0,28-28V36A28.032,28.032,0,0,0,220,8Zm12,212a12.013,12.013,0,0,1-12,12H36a12.013,12.013,0,0,1-12-12V36A12.013,12.013,0,0,1,36,24H220a12.013,12.013,0,0,1,12,12Z"/><path d="M476,8H292a28.032,28.032,0,0,0-28,28V220a28.032,28.032,0,0,0,28,28H476a28.032,28.032,0,0,0,28-28V36A28.032,28.032,0,0,0,476,8Zm12,212a12.013,12.013,0,0,1-12,12H292a12.013,12.013,0,0,1-12-12V36a12.013,12.013,0,0,1,12-12H476a12.013,12.013,0,0,1,12,12Z"/><path d="M220,264H36A28.032,28.032,0,0,0,8,292V476a28.032,28.032,0,0,0,28,28H220a28.032,28.032,0,0,0,28-28V292A28.032,28.032,0,0,0,220,264Zm12,212a12.013,12.013,0,0,1-12,12H36a12.013,12.013,0,0,1-12-12V292a12.013,12.013,0,0,1,12-12H220a12.013,12.013,0,0,1,12,12Z"/><path d="M476,264H292a28.031,28.031,0,0,0-28,28V476a28.031,28.031,0,0,0,28,28H476a28.031,28.031,0,0,0,28-28V292A28.031,28.031,0,0,0,476,264Zm12,212a12.01,12.01,0,0,1-12,12H292a12.01,12.01,0,0,1-12-12V292a12.01,12.01,0,0,1,12-12H476a12.01,12.01,0,0,1,12,12Z"/><path d="M439.972,359.335A8,8,0,0,0,432,352H416V340a28.032,28.032,0,0,0-28-28h-8a28.032,28.032,0,0,0-28,28v12H336a8,8,0,0,0-7.972,7.335l-8,96A8,8,0,0,0,328,464H440a8,8,0,0,0,7.972-8.665ZM368,340a12.013,12.013,0,0,1,12-12h8a12.013,12.013,0,0,1,12,12v12H368ZM336.694,448l6.667-80H352v8a8,8,0,0,0,16,0v-8h32v8a8,8,0,0,0,16,0v-8h8.639l6.667,80Z"/></g>
  </symbol>
  <symbol id="edit" viewBox="0 0 24 24">
    <g>
      <path d="m11.894 24c-.131 0-.259-.052-.354-.146-.118-.118-.17-.288-.137-.451l.707-3.535c.02-.098.066-.187.137-.256l7.778-7.778c.584-.584 1.537-.584 2.121 0l1.414 1.414c.585.585.585 1.536 0 2.121l-7.778 7.778c-.069.07-.158.117-.256.137l-3.535.707c-.032.006-.065.009-.097.009zm1.168-3.789-.53 2.651 2.651-.53 7.671-7.671c.195-.195.195-.512 0-.707l-1.414-1.414c-.195-.195-.512-.195-.707 0zm2.367 2.582h.01z"/><path d="m9.5 21h-7c-1.379 0-2.5-1.121-2.5-2.5v-13c0-1.379 1.121-2.5 2.5-2.5h2c.276 0 .5.224.5.5s-.224.5-.5.5h-2c-.827 0-1.5.673-1.5 1.5v13c0 .827.673 1.5 1.5 1.5h7c.276 0 .5.224.5.5s-.224.5-.5.5z"/><path d="m16.5 12c-.276 0-.5-.224-.5-.5v-6c0-.827-.673-1.5-1.5-1.5h-2c-.276 0-.5-.224-.5-.5s.224-.5.5-.5h2c1.379 0 2.5 1.121 2.5 2.5v6c0 .276-.224.5-.5.5z"/><path d="m11.5 6h-6c-.827 0-1.5-.673-1.5-1.5v-2c0-.276.224-.5.5-.5h1.55c.232-1.14 1.243-2 2.45-2s2.218.86 2.45 2h1.55c.276 0 .5.224.5.5v2c0 .827-.673 1.5-1.5 1.5zm-6.5-3v1.5c0 .275.225.5.5.5h6c.275 0 .5-.225.5-.5v-1.5h-1.5c-.276 0-.5-.224-.5-.5 0-.827-.673-1.5-1.5-1.5s-1.5.673-1.5 1.5c0 .276-.224.5-.5.5z"/><path d="m13.5 9h-10c-.276 0-.5-.224-.5-.5s.224-.5.5-.5h10c.276 0 .5.224.5.5s-.224.5-.5.5z"/><path d="m13.5 12h-10c-.276 0-.5-.224-.5-.5s.224-.5.5-.5h10c.276 0 .5.224.5.5s-.224.5-.5.5z"/><path d="m13.5 15h-10c-.276 0-.5-.224-.5-.5s.224-.5.5-.5h10c.276 0 .5.224.5.5s-.224.5-.5.5z"/>
    </g>
  </symbol>
  <symbol id="file" viewBox="0 0 512 512">
    <g>
      <g><path d="m32 456c.025 22.081 17.919 39.975 40 40h296c61.851.006 111.996-50.129 112.002-111.98.004-43.264-24.912-82.66-64.002-101.199v-162.821c0-2.122-.843-4.157-2.343-5.657l-96-96c-1.5-1.5-3.535-2.343-5.657-2.343h-240c-22.081.025-39.975 17.919-40 40zm432-72c0 53.019-42.981 96-96 96s-96-42.981-96-96 42.981-96 96-96c52.995.06 95.94 43.005 96 96zm-144-340.687 68.687 68.687h-44.687c-13.249-.015-23.985-10.751-24-24zm-272 12.687c.015-13.248 10.752-23.985 24-24h232v56c.025 22.081 17.919 39.975 40 40h56v148.666c-59.265-17.683-121.643 16.025-139.327 75.289-14.627 49.023 5.828 101.725 49.696 128.045h-238.369c-13.248-.015-23.985-10.752-24-24z"/><path d="m160 168c0 4.418 3.582 8 8 8h192c4.418 0 8-3.582 8-8s-3.582-8-8-8h-192c-4.418 0-8 3.582-8 8z"/><path d="m88 224h160c4.418 0 8-3.582 8-8s-3.582-8-8-8h-160c-4.418 0-8 3.582-8 8s3.582 8 8 8z"/><path d="m280 256h-64c-4.418 0-8 3.582-8 8s3.582 8 8 8h64c4.418 0 8-3.582 8-8s-3.582-8-8-8z"/><path d="m88 320h144c4.418 0 8-3.582 8-8s-3.582-8-8-8h-144c-4.418 0-8 3.582-8 8s3.582 8 8 8z"/><path d="m88 176h48c4.418 0 8-3.582 8-8s-3.582-8-8-8h-48c-4.418 0-8 3.582-8 8s3.582 8 8 8z"/><path d="m360 208h-80c-4.418 0-8 3.582-8 8s3.582 8 8 8h80c4.418 0 8-3.582 8-8s-3.582-8-8-8z"/><path d="m88 272h96c4.418 0 8-3.582 8-8s-3.582-8-8-8h-96c-4.418 0-8 3.582-8 8s3.582 8 8 8z"/><path d="m216 400h-32c-4.418 0-8 3.582-8 8s3.582 8 8 8h32c4.418 0 8-3.582 8-8s-3.582-8-8-8z"/><path d="m88 416h64c4.418 0 8-3.582 8-8s-3.582-8-8-8h-64c-4.418 0-8 3.582-8 8s3.582 8 8 8z"/><path d="m88 368h48c4.418 0 8-3.582 8-8s-3.582-8-8-8h-48c-4.418 0-8 3.582-8 8s3.582 8 8 8z"/><path d="m88 128h96c4.418 0 8-3.582 8-8s-3.582-8-8-8h-96c-4.418 0-8 3.582-8 8s3.582 8 8 8z"/><path d="m216 352h-48c-4.418 0-8 3.582-8 8s3.582 8 8 8h48c4.418 0 8-3.582 8-8s-3.582-8-8-8z"/><path d="m322.879 329.854c-3.395 2.828-3.854 7.873-1.026 11.267 0 0 0 .001.001.001 0 0 30.333 36.449 39.97 47.964.971 1.161 2.556 2.512 5.331 2.87.28.036.563.044.845.044h56c4.418 0 8-3.582 8-8s-3.582-8-8-8h-52.253l-37.6-45.122c-2.828-3.394-7.873-3.853-11.268-1.024z"/></g>
    </g>
  </symbol>
  <symbol id="money" viewBox="0 0 511.999 511.999">
    <g>
      <g>
        <g>
          <path d="M316.209,117.615h0.598C316.808,117.615,316.342,116.445,316.209,117.615z"/>
          <path d="M171.747,117.615h0.598C172.212,116.445,171.747,117.615,171.747,117.615z"/>
        </g>
      </g>
    </g>
    <g>
      <g>
        <path d="M460.496,154.447c-3.357-5.359-8.599-9.09-14.761-10.506l-32.457-7.458l14.986-4.195
          c12.417-3.475,19.898-16.737,16.417-29.177c-3.476-12.417-16.736-19.896-29.178-16.417l-69.876,19.557
          c-1.819-3.31-4.406-6.143-7.522-8.251c14.181-26.391,34.612-71.176,34.612-90.443c0-4.699-4.442-8.335-9.051-7.406
          c-27.731,5.602-53.586,8.187-79.011,7.91c-26.134-0.287-58.659-3.533-79.095-7.893c-6.318-1.348-11.388,5.722-8.056,11.276
          c4.98,8.3,8.031,17.076,9.708,25.921c-25.649,0.786-52.248-2.322-72.38-12.389c-5.423-2.712-11.824,2.033-10.832,8
          c6.332,37.987,19.106,60.259,31.913,77.086h-0.284c-13.053,0-23.673,10.62-23.673,23.673c0,12.005,8.985,21.944,20.581,23.465
          c-8.453,14.158-20.525,27.591-33.209,41.687c-26.973,29.976-57.546,63.952-67.832,118.811c-4.922,26.249-4.758,50.81,0.489,73.002
          c4.898,20.718,14.227,39.471,27.726,55.737c17.919,21.592,42.538,38.345,73.172,49.797c27.595,10.315,59.198,15.767,91.394,15.767
          c32.196,0,63.8-5.452,91.394-15.767c30.634-11.452,55.253-28.206,73.172-49.797c13.499-16.266,22.828-35.018,27.726-55.737
          c5.246-22.192,5.411-46.754,0.489-73.002c-10.286-54.858-40.858-88.834-67.831-118.81c-9.157-10.177-17.869-19.88-25.173-29.728
          l91.079,20.926c9.649,2.217,19.931-2.004,25.261-10.342C465.272,172.11,465.301,162.115,460.496,154.447z M284.489,23.17
          c23.263,0.254,46.807-1.78,71.676-6.212c-4.56,18.643-19.203,51.801-33.092,77.06c-9.625,0.725-17.659,7.227-20.637,16.043H281.46
          c-0.474-1.021-0.999-2.14-1.584-3.383C273.39,92.89,259.892,64.2,259.892,39.792c0-4.692-4.431-8.33-9.037-7.408
          c-8.792,1.759-18.465,3.182-28.53,4.074c-1.055-6.304-2.692-12.618-5.072-18.828C237.553,20.772,263.124,22.935,284.489,23.17z
          M333.429,117.615v32.236c0,4.721-3.841,8.563-8.563,8.563s-8.563-3.841-8.563-8.563v-32.236c0-4.722,3.841-8.563,8.563-8.563
          S333.429,112.894,333.429,117.615z M141.612,44.107c18.888,6.447,42.123,9.306,67.216,8.424l14.974-0.946
          c7.063-0.648,14.229-1.581,21.448-2.802c2.356,23.374,13.034,47.392,19.522,61.278h-50.307h-15.894h-23.376
          c-0.169-0.265-0.351-0.525-0.556-0.773C162.002,94.085,149.179,76.5,141.612,44.107z M357.994,208.993
          c25.645,28.498,54.708,60.798,64.214,111.487c8.747,46.652,0.338,85.782-24.993,116.303
          c-31.234,37.635-88.407,60.105-152.937,60.105S122.574,474.419,91.34,436.784c-25.331-30.521-33.739-69.651-24.993-116.303
          c9.505-50.69,38.57-82.991,64.214-111.488c15.333-17.041,29.819-33.159,39.103-51.586h18.452c4.174,0,7.555-3.383,7.555-7.555
          c0-4.173-3.382-7.555-7.555-7.555h-32.488c-4.722,0-8.563-3.841-8.563-8.563c0-4.722,3.841-8.563,8.563-8.563h145.564v17.125
          h-77.064c-4.174,0-7.555,3.383-7.555,7.555c0,4.172,3.382,7.555,7.555,7.555h78.307c3.161,9.358,12.018,16.118,22.43,16.118
          c1.203,0,2.383-0.092,3.539-0.265C336.836,185.456,347.114,196.903,357.994,208.993z M348.54,121.127l71.035-19.881
          c4.498-1.261,9.298,1.449,10.554,5.938c1.258,4.499-1.447,9.297-5.938,10.553l-40.596,11.362
          c-0.331,0.093-0.647,0.213-0.954,0.346l-34.101-7.835V121.127z M448.779,168.929c-1.058,4.602-5.654,7.487-10.263,6.428
          l-90.451-20.782c0.31-1.527,0.474-3.107,0.474-4.725v-12.738l93.811,21.554C446.897,159.711,449.824,164.378,448.779,168.929z"/>
      </g>
    </g>
    <g>
      <g>
        <path d="M292.631,310.526c10.831,0,19.644-8.812,19.644-19.644v-12.088c0-28.268-21.084-51.702-48.354-55.4v-13.101
          c0-10.831-8.812-19.644-19.644-19.644c-10.831,0-19.644,8.812-19.644,19.644v14.101c-27.997,6.245-48.354,31.134-48.354,60.444
          c0,34.161,27.792,61.953,61.953,61.953h12.088c12.497,0,22.666,10.167,22.666,22.666s-10.168,22.666-22.666,22.666h-18.133
          c-9.166,0-16.622-7.457-16.622-16.622c0-10.831-8.812-19.644-19.644-19.644c-10.831,0-19.644,8.812-19.644,19.644
          c0,28.268,21.084,51.702,48.354,55.4v13.101c0,10.831,8.812,19.644,19.644,19.644c10.831,0,19.644-8.812,19.644-19.644v-14.101
          c27.997-6.245,48.354-31.134,48.354-60.444c0-34.161-27.792-61.953-61.953-61.953h-12.088c-12.497,0-22.666-10.167-22.666-22.666
          s10.168-22.666,22.666-22.666h18.133c9.166,0,16.622,7.457,16.622,16.622v12.088C272.987,301.713,281.8,310.526,292.631,310.526z
          M256.366,247.062h-18.133c-20.83,0-37.776,16.946-37.776,37.776c0,20.83,16.946,37.776,37.776,37.776h12.088
          c25.83,0,46.843,21.014,46.843,46.843c0,23.899-17.899,43.908-41.632,46.545c-3.826,0.425-6.721,3.659-6.721,7.509v20.491
          c0,2.499-2.034,4.533-4.533,4.533s-4.533-2.034-4.533-4.533v-20.147c0-4.173-3.382-7.555-7.555-7.555
          c-22.497,0-40.798-18.302-40.798-40.798c0-2.499,2.034-4.533,4.533-4.533s4.533,2.034,4.533,4.533
          c0,17.497,14.235,31.732,31.732,31.732h18.133c20.83,0,37.776-16.946,37.776-37.776s-16.946-37.776-37.776-37.776h-12.088
          c-25.83,0-46.843-21.014-46.843-46.843c0-23.899,17.899-43.908,41.632-46.545c3.826-0.425,6.721-3.659,6.721-7.509v-20.491
          c0-2.499,2.034-4.533,4.533-4.533s4.533,2.034,4.533,4.533v20.147c0,4.173,3.382,7.555,7.555,7.555
          c22.497,0,40.798,18.302,40.798,40.798v12.088c0,2.499-2.034,4.533-4.533,4.533s-4.533-2.034-4.533-4.533v-12.088
          C288.098,261.297,273.863,247.062,256.366,247.062z"/>
      </g>
    </g>
    <g></g>
    <g></g>
    <g></g>
    <g></g>
    <g></g>
    <g></g>
    <g></g>
    <g></g>
    <g></g>
    <g></g>
    <g></g>
    <g></g>
    <g></g>
    <g></g>
    <g></g>
  </symbol>
  <symbol id="to-do-list" viewBox="0 0 512 512">
    <g><path d="m143.194 218.977 46.751-56.244c2.648-3.186 2.212-7.914-.974-10.562-3.184-2.647-7.914-2.211-10.562.974l-40.074 48.211-8.759-14.228c-2.171-3.527-6.79-4.628-10.319-2.455-3.527 2.172-4.626 6.792-2.455 10.318l14.236 23.123c2.692 4.37 8.878 4.807 12.156.863z"/><path d="m116.804 293.991 14.236 23.123c2.69 4.37 8.876 4.807 12.154.862l46.751-56.244c2.648-3.186 2.212-7.914-.974-10.562-3.184-2.647-7.914-2.212-10.562.974l-40.074 48.211-8.759-14.228c-2.171-3.527-6.79-4.628-10.319-2.455-3.526 2.173-4.625 6.793-2.453 10.319z"/><path d="m116.804 393.658 14.236 23.123c2.69 4.37 8.876 4.807 12.154.862l46.751-56.244c2.648-3.186 2.212-7.914-.974-10.562-3.184-2.647-7.914-2.212-10.562.974l-40.074 48.211-8.759-14.228c-2.171-3.527-6.79-4.627-10.319-2.455-3.526 2.173-4.625 6.793-2.453 10.319z"/><path d="m448.5 423.405c-4.142 0-7.5 3.357-7.5 7.5v54.595c0 6.341-5.159 11.5-11.5 11.5h-347c-6.341 0-11.5-5.159-11.5-11.5v-328.691c0-4.143-3.358-7.5-7.5-7.5s-7.5 3.357-7.5 7.5v328.691c0 14.612 11.888 26.5 26.5 26.5h347c14.612 0 26.5-11.888 26.5-26.5v-54.595c0-4.142-3.358-7.5-7.5-7.5z"/><path d="m429.5 57.791h-36.688v-30.991c0-14.777-12.022-26.8-26.8-26.8s-26.8 12.022-26.8 26.8v30.991h-56.412v-30.991c0-14.778-12.023-26.8-26.8-26.8s-26.8 12.022-26.8 26.8v30.991h-56.413v-30.991c0-14.777-12.022-26.8-26.8-26.8-14.777 0-26.8 12.022-26.8 26.8v30.991h-36.687c-14.612 0-26.5 11.888-26.5 26.5v37.518c0 4.143 3.358 7.5 7.5 7.5s7.5-3.357 7.5-7.5v-37.518c0-6.341 5.159-11.5 11.5-11.5h36.687v11.909c0 14.777 12.022 26.8 26.8 26.8s26.8-12.022 26.8-26.8v-11.909h56.413v11.909c0 14.777 12.022 26.8 26.8 26.8s26.8-12.022 26.8-26.8v-11.909h56.413v11.909c0 14.777 12.022 26.8 26.8 26.8 14.777 0 26.8-12.022 26.8-26.8v-11.909h36.687c6.341 0 11.5 5.159 11.5 11.5v311.614c0 4.143 3.358 7.5 7.5 7.5s7.5-3.357 7.5-7.5v-311.614c0-14.612-11.888-26.5-26.5-26.5zm-271.712 26.909c0 6.507-5.293 11.8-11.8 11.8-6.506 0-11.8-5.293-11.8-11.8 0-15.987 0-52.896 0-57.9 0-6.507 5.293-11.8 11.8-11.8s11.8 5.293 11.8 11.8zm110.012 0c0 6.507-5.293 11.8-11.8 11.8s-11.8-5.293-11.8-11.8c0-15.987 0-52.896 0-57.9 0-6.507 5.293-11.8 11.8-11.8s11.8 5.293 11.8 11.8zm110.013 0c0 6.507-5.293 11.8-11.8 11.8s-11.8-5.293-11.8-11.8c0-15.987 0-52.896 0-57.9 0-6.507 5.293-11.8 11.8-11.8 6.506 0 11.8 5.293 11.8 11.8z"/><path d="m221.739 225.183h158c12.958 0 23.5-10.542 23.5-23.5s-10.542-23.5-23.5-23.5h-158c-12.958 0-23.5 10.542-23.5 23.5s10.542 23.5 23.5 23.5zm0-32h158c4.687 0 8.5 3.813 8.5 8.5s-3.813 8.5-8.5 8.5h-158c-4.687 0-8.5-3.813-8.5-8.5s3.813-8.5 8.5-8.5z"/><path d="m221.739 324.396h158c12.958 0 23.5-10.542 23.5-23.5s-10.542-23.5-23.5-23.5h-158c-12.958 0-23.5 10.542-23.5 23.5s10.542 23.5 23.5 23.5zm0-32h158c4.687 0 8.5 3.813 8.5 8.5s-3.813 8.5-8.5 8.5h-158c-4.687 0-8.5-3.813-8.5-8.5s3.813-8.5 8.5-8.5z"/><path d="m221.739 423.608h158c12.958 0 23.5-10.542 23.5-23.5s-10.542-23.5-23.5-23.5h-158c-12.958 0-23.5 10.542-23.5 23.5s10.542 23.5 23.5 23.5zm0-32h158c4.687 0 8.5 3.813 8.5 8.5s-3.813 8.5-8.5 8.5h-158c-4.687 0-8.5-3.813-8.5-8.5s3.813-8.5 8.5-8.5z"/></g>
  </symbol>
  <symbol id="toggle" viewBox="0 0 14 14">
    <path fill-rule="evenodd" clip-rule="evenodd" d="M2 0C0.895431 0 0 0.89543 0 2V12C0 13.1046 0.89543 14 2 14H12C13.1046 14 14 13.1046 14 12V2C14 0.895431 13.1046 0 12 0H2ZM5 2C4.44772 2 4 2.44772 4 3V11C4 11.5523 4.44772 12 5 12C5.55228 12 6 11.5523 6 11V3C6 2.44772 5.55228 2 5 2Z"/>
  </symbol>
  <symbol id="refresh" viewBox="0 0 458.186 458.186">
    <g>
      <g>
        <path d="M445.651,201.95c-1.485-9.308-10.235-15.649-19.543-14.164c-9.308,1.485-15.649,10.235-14.164,19.543
          c0.016,0.102,0.033,0.203,0.051,0.304c17.38,102.311-51.47,199.339-153.781,216.719c-102.311,17.38-199.339-51.47-216.719-153.781
          S92.966,71.232,195.276,53.852c62.919-10.688,126.962,11.29,170.059,58.361l-75.605,25.19
          c-8.944,2.976-13.781,12.638-10.806,21.582c0.001,0.002,0.002,0.005,0.003,0.007c2.976,8.944,12.638,13.781,21.582,10.806
          c0.003-0.001,0.005-0.002,0.007-0.002l102.4-34.133c6.972-2.322,11.675-8.847,11.674-16.196v-102.4
          C414.59,7.641,406.949,0,397.523,0s-17.067,7.641-17.067,17.067v62.344C292.564-4.185,153.545-0.702,69.949,87.19
          s-80.114,226.911,7.779,310.508s226.911,80.114,310.508-7.779C435.905,339.799,457.179,270.152,445.651,201.95z"/>
      </g>
    </g>
    <g></g>
    <g></g>
    <g></g>
    <g></g>
    <g></g>
    <g></g>
    <g></g>
    <g></g>
    <g></g>
    <g></g>
    <g></g>
    <g></g>
    <g></g>
    <g></g>
    <g></g>
  </symbol>
  <symbol id="logout" viewBox="0 0 512.00533 512">
    <g>
      <path d="m320 277.335938c-11.796875 0-21.332031 9.558593-21.332031 21.332031v85.335937c0 11.753906-9.558594 21.332032-21.335938 21.332032h-64v-320c0-18.21875-11.605469-34.496094-29.054687-40.554688l-6.316406-2.113281h99.371093c11.777344 0 21.335938 9.578125 21.335938 21.335937v64c0 11.773438 9.535156 21.332032 21.332031 21.332032s21.332031-9.558594 21.332031-21.332032v-64c0-35.285156-28.714843-63.99999975-64-63.99999975h-229.332031c-.8125 0-1.492188.36328175-2.28125.46874975-1.027344-.085937-2.007812-.46874975-3.050781-.46874975-23.53125 0-42.667969 19.13281275-42.667969 42.66406275v384c0 18.21875 11.605469 34.496093 29.054688 40.554687l128.386718 42.796875c4.351563 1.34375 8.679688 1.984375 13.226563 1.984375 23.53125 0 42.664062-19.136718 42.664062-42.667968v-21.332032h64c35.285157 0 64-28.714844 64-64v-85.335937c0-11.773438-9.535156-21.332031-21.332031-21.332031zm0 0"/><path d="m505.75 198.253906-85.335938-85.332031c-6.097656-6.101563-15.273437-7.9375-23.25-4.632813-7.957031 3.308594-13.164062 11.09375-13.164062 19.714844v64h-85.332031c-11.777344 0-21.335938 9.554688-21.335938 21.332032 0 11.777343 9.558594 21.332031 21.335938 21.332031h85.332031v64c0 8.621093 5.207031 16.40625 13.164062 19.714843 7.976563 3.304688 17.152344 1.46875 23.25-4.628906l85.335938-85.335937c8.339844-8.339844 8.339844-21.824219 0-30.164063zm0 0"/>
    </g>
  </symbol>
  <symbol id="arrow-down" viewBox="0 0 490.688 490.688">
    <path style="fill:#FFC107;" d="M472.328,120.529L245.213,347.665L18.098,120.529c-4.237-4.093-10.99-3.975-15.083,0.262
      c-3.992,4.134-3.992,10.687,0,14.82l234.667,234.667c4.165,4.164,10.917,4.164,15.083,0l234.667-234.667
      c4.237-4.093,4.354-10.845,0.262-15.083c-4.093-4.237-10.845-4.354-15.083-0.262c-0.089,0.086-0.176,0.173-0.262,0.262
      L472.328,120.529z"/>
    <path d="M245.213,373.415c-2.831,0.005-5.548-1.115-7.552-3.115L2.994,135.633c-4.093-4.237-3.975-10.99,0.262-15.083
      c4.134-3.992,10.687-3.992,14.82,0l227.136,227.115l227.115-227.136c4.093-4.237,10.845-4.354,15.083-0.262
      c4.237,4.093,4.354,10.845,0.262,15.083c-0.086,0.089-0.173,0.176-0.262,0.262L252.744,370.279
      C250.748,372.281,248.039,373.408,245.213,373.415z"/>
    <g></g>
    <g></g>
    <g></g>
    <g></g>
    <g></g>
    <g></g>
    <g></g>
    <g></g>
    <g></g>
    <g></g>
    <g></g>
    <g></g>
    <g></g>
    <g></g>
    <g></g>
  </symbol>
  <symbol id="arrow-up" viewBox="0 0 490.523 490.523">
    <path style="fill:#FFC107;" d="M487.411,355.047L252.744,120.38c-4.165-4.164-10.917-4.164-15.083,0L2.994,355.047
      c-4.093,4.237-3.976,10.99,0.262,15.083c4.134,3.993,10.687,3.993,14.821,0l227.115-227.115l227.115,227.136
      c4.237,4.093,10.99,3.976,15.083-0.261c3.993-4.134,3.993-10.688,0-14.821L487.411,355.047z"/>
    <path d="M479.859,373.266c-2.831,0.005-5.548-1.115-7.552-3.115L245.192,143.015L18.077,370.151
      c-4.237,4.093-10.99,3.976-15.083-0.262c-3.993-4.134-3.993-10.687,0-14.821l234.667-234.667c4.165-4.164,10.917-4.164,15.083,0
      l234.667,234.667c4.159,4.172,4.148,10.926-0.024,15.085C485.388,372.146,482.681,373.265,479.859,373.266z"/>
    <g></g>
    <g></g>
    <g></g>
    <g></g>
    <g></g>
    <g></g>
    <g></g>
    <g></g>
    <g></g>
    <g></g>
    <g></g>
    <g></g>
    <g></g>
    <g></g>
    <g></g>
  </symbol>
  <symbol id="trash" viewBox="0 0 16 16">
    <g>
      <path d="M3.99992 12.6667C3.99992 13.4 4.59992 14 5.33325 14H10.6666C11.3999 14 11.9999 13.4 11.9999 12.6667V4.66667H3.99992V12.6667ZM12.6666 2.66667H10.3333L9.66659 2H6.33325L5.66659 2.66667H3.33325V4H12.6666V2.66667Z"/>
    </g>
  </symbol>
  <symbol id="outcome" viewBox="0 0 15 15">
    <g>
      <path d="M9.83034 11.0471L11.1662 9.71132L8.31951 6.86465L5.98618 9.19798L1.66368 4.86965L2.48618 4.04715L5.98618 7.54715L8.31951 5.21382L11.9945 8.88298L13.3303 7.54715V11.0471H9.83034Z" fill="#FD3758"/>
    </g>
  </symbol>
  <symbol id="income" viewBox="0 0 15 15">
    <g>
      <path d="M9.99702 3.65109L11.3329 4.98693L8.48618 7.83359L6.15285 5.50026L1.83035 9.82859L2.65285 10.6511L6.15285 7.15109L8.48618 9.48443L12.1612 5.81526L13.497 7.15109V3.65109H9.99702Z" fill="#01D066"/>
    </g>
  </symbol>
  <symbol id="russia" viewBox="0 0 512 512">
    <g>
      <polygon style="fill:#F0F0F0;" points="0,85.33 0,199.107 0,312.885 0,426.662 512,426.662 512,312.885 512,199.107 512,85.33 "/>
      <rect y="85.333" style="fill:#0052B4;" width="512" height="341.337"/>
      <rect y="85.333" style="fill:#F0F0F0;" width="512" height="113.775"/>
      <rect y="312.884" style="fill:#D80027;" width="512" height="113.775"/>
      <g></g>
      <g></g>
      <g></g>
      <g></g>
      <g></g>
      <g></g>
      <g></g>
      <g></g>
      <g></g>
      <g></g>
      <g></g>
      <g></g>
      <g></g>
      <g></g>
      <g></g>
    </g>
  </symbol>
  <symbol id="usa" viewBox="0 0 512 512">
      <g><path d="m495.484 90.839h-231.226l-255.258 176.661v146.833h486.484l16.516-9.688v-30.673l-10.75-10.222v-29l10.75-7.967v-47.189l-9.667-9.261v-29.667l9.667-8.262v-47.188l-9.667-8.549v-26l9.667-12.639v-30.673c0-9.122-7.395-16.516-16.516-16.516z" fill="#e5646e"/><path d="m256.333 138.028h255.667v47.189h-255.667z" fill="#f2f2f6"/><path d="m256 232.405 8.258 47.189h247.742v-47.189z" fill="#f2f2f6"/><path d="m16.516 355.097v-84.097l-16.516 8.594v47.189l7 5.967v31l-7 10.222v30.673c0 9.122 7.395 16.516 16.516 16.516h478.968c9.121 0 16.516-7.395 16.516-16.516h-445.935c-27.365 0-49.549-22.183-49.549-49.548z" fill="#db4655"/><path d="m264.258 90.839h-247.742l-10.516 16.516 10.516 172.239h247.742z" fill="#5055a0"/><path d="m16.516 90.839c-9.121 0-16.516 7.394-16.516 16.516v172.239h16.516z" fill="#3f3f8f"/><path d="m33.113 127.657c-4.565 0-8.298-3.698-8.298-8.258s3.653-8.258 8.218-8.258h.081c4.565 0 8.258 3.698 8.258 8.258s-3.695 8.258-8.259 8.258z" fill="#fff"/><path d="m33.113 193.722c-4.565 0-8.298-3.698-8.298-8.258s3.653-8.258 8.218-8.258h.081c4.565 0 8.258 3.698 8.258 8.258s-3.695 8.258-8.259 8.258z" fill="#fff"/><path d="m33.113 259.786c-4.565 0-8.298-3.698-8.298-8.258s3.653-8.258 8.218-8.258h.081c4.565 0 8.258 3.698 8.258 8.258s-3.695 8.258-8.259 8.258z" fill="#fff"/><path d="m33.113 160.69c-4.565 0-8.298-3.698-8.298-8.258s3.653-8.258 8.218-8.258h.081c4.565 0 8.258 3.698 8.258 8.258-.001 4.56-3.695 8.258-8.259 8.258z" fill="#f2f2f6"/><path d="m33.113 226.754c-4.565 0-8.298-3.698-8.298-8.258s3.653-8.258 8.218-8.258h.081c4.565 0 8.258 3.698 8.258 8.258s-3.695 8.258-8.259 8.258z" fill="#f2f2f6"/><path d="m231.306 127.657c-4.565 0-8.298-3.698-8.298-8.258s3.653-8.258 8.218-8.258h.081c4.565 0 8.258 3.698 8.258 8.258s-3.694 8.258-8.259 8.258z" fill="#fff"/><path d="m231.306 193.722c-4.565 0-8.298-3.698-8.298-8.258s3.653-8.258 8.218-8.258h.081c4.565 0 8.258 3.698 8.258 8.258s-3.694 8.258-8.259 8.258z" fill="#fff"/><path d="m231.306 259.786c-4.565 0-8.298-3.698-8.298-8.258s3.653-8.258 8.218-8.258h.081c4.565 0 8.258 3.698 8.258 8.258s-3.694 8.258-8.259 8.258z" fill="#fff"/><g fill="#f2f2f6"><path d="m231.306 160.69c-4.565 0-8.298-3.698-8.298-8.258s3.653-8.258 8.218-8.258h.081c4.565 0 8.258 3.698 8.258 8.258s-3.694 8.258-8.259 8.258z"/><path d="m231.306 226.754c-4.565 0-8.298-3.698-8.298-8.258s3.653-8.258 8.218-8.258h.081c4.565 0 8.258 3.698 8.258 8.258s-3.694 8.258-8.259 8.258z"/><path d="m82.661 127.657c-4.565 0-8.298-3.698-8.298-8.258s3.653-8.258 8.218-8.258h.081c4.565 0 8.258 3.698 8.258 8.258s-3.694 8.258-8.259 8.258z"/><path d="m82.661 193.722c-4.565 0-8.298-3.698-8.298-8.258s3.653-8.258 8.218-8.258h.081c4.565 0 8.258 3.698 8.258 8.258s-3.694 8.258-8.259 8.258z"/><path d="m82.661 259.786c-4.565 0-8.298-3.698-8.298-8.258s3.653-8.258 8.218-8.258h.081c4.565 0 8.258 3.698 8.258 8.258s-3.694 8.258-8.259 8.258z"/></g><path d="m82.661 160.69c-4.565 0-8.298-3.698-8.298-8.258s3.653-8.258 8.218-8.258h.081c4.565 0 8.258 3.698 8.258 8.258-.001 4.56-3.694 8.258-8.259 8.258z" fill="#fff"/><path d="m82.661 226.754c-4.565 0-8.298-3.698-8.298-8.258s3.653-8.258 8.218-8.258h.081c4.565 0 8.258 3.698 8.258 8.258s-3.694 8.258-8.259 8.258z" fill="#fff"/><path d="m57.887 144.173c-4.565 0-8.298-3.698-8.298-8.258s3.653-8.258 8.218-8.258h.081c4.565 0 8.258 3.698 8.258 8.258-.001 4.561-3.694 8.258-8.259 8.258z" fill="#fff"/><path d="m57.887 210.238c-4.565 0-8.298-3.698-8.298-8.258s3.653-8.258 8.218-8.258h.081c4.565 0 8.258 3.698 8.258 8.258s-3.694 8.258-8.259 8.258z" fill="#fff"/><path d="m57.887 177.206c-4.565 0-8.298-3.698-8.298-8.258s3.653-8.258 8.218-8.258h.081c4.565 0 8.258 3.698 8.258 8.258s-3.694 8.258-8.259 8.258z" fill="#f2f2f6"/><path d="m57.887 243.27c-4.565 0-8.298-3.698-8.298-8.258s3.653-8.258 8.218-8.258h.081c4.565 0 8.258 3.698 8.258 8.258s-3.694 8.258-8.259 8.258z" fill="#f2f2f6"/><path d="m132.21 127.657c-4.565 0-8.298-3.698-8.298-8.258s3.653-8.258 8.218-8.258h.081c4.565 0 8.258 3.698 8.258 8.258s-3.695 8.258-8.259 8.258z" fill="#fff"/><path d="m132.21 193.722c-4.565 0-8.298-3.698-8.298-8.258s3.653-8.258 8.218-8.258h.081c4.565 0 8.258 3.698 8.258 8.258s-3.695 8.258-8.259 8.258z" fill="#fff"/><path d="m132.21 259.786c-4.565 0-8.298-3.698-8.298-8.258s3.653-8.258 8.218-8.258h.081c4.565 0 8.258 3.698 8.258 8.258s-3.695 8.258-8.259 8.258z" fill="#fff"/><path d="m132.21 160.69c-4.565 0-8.298-3.698-8.298-8.258s3.653-8.258 8.218-8.258h.081c4.565 0 8.258 3.698 8.258 8.258-.001 4.56-3.695 8.258-8.259 8.258z" fill="#f2f2f6"/><path d="m132.21 226.754c-4.565 0-8.298-3.698-8.298-8.258s3.653-8.258 8.218-8.258h.081c4.565 0 8.258 3.698 8.258 8.258s-3.695 8.258-8.259 8.258z" fill="#f2f2f6"/><path d="m107.435 144.173c-4.565 0-8.298-3.698-8.298-8.258s3.653-8.258 8.218-8.258h.081c4.565 0 8.258 3.698 8.258 8.258 0 4.561-3.694 8.258-8.259 8.258z" fill="#f2f2f6"/><path d="m107.435 210.238c-4.565 0-8.298-3.698-8.298-8.258s3.653-8.258 8.218-8.258h.081c4.565 0 8.258 3.698 8.258 8.258s-3.694 8.258-8.259 8.258z" fill="#f2f2f6"/><path d="m107.435 177.206c-4.565 0-8.298-3.698-8.298-8.258s3.653-8.258 8.218-8.258h.081c4.565 0 8.258 3.698 8.258 8.258s-3.694 8.258-8.259 8.258z" fill="#fff"/><path d="m107.435 243.27c-4.565 0-8.298-3.698-8.298-8.258s3.653-8.258 8.218-8.258h.081c4.565 0 8.258 3.698 8.258 8.258s-3.694 8.258-8.259 8.258z" fill="#fff"/><path d="m181.677 127.657c-4.565 0-8.298-3.698-8.298-8.258s3.653-8.258 8.218-8.258h.081c4.565 0 8.258 3.698 8.258 8.258s-3.694 8.258-8.259 8.258z" fill="#f2f2f6"/><path d="m181.677 193.722c-4.565 0-8.298-3.698-8.298-8.258s3.653-8.258 8.218-8.258h.081c4.565 0 8.258 3.698 8.258 8.258s-3.694 8.258-8.259 8.258z" fill="#f2f2f6"/><path d="m181.677 259.786c-4.565 0-8.298-3.698-8.298-8.258s3.653-8.258 8.218-8.258h.081c4.565 0 8.258 3.698 8.258 8.258s-3.694 8.258-8.259 8.258z" fill="#f2f2f6"/><path d="m181.677 160.69c-4.565 0-8.298-3.698-8.298-8.258s3.653-8.258 8.218-8.258h.081c4.565 0 8.258 3.698 8.258 8.258-.001 4.56-3.694 8.258-8.259 8.258z" fill="#fff"/><path d="m181.677 226.754c-4.565 0-8.298-3.698-8.298-8.258s3.653-8.258 8.218-8.258h.081c4.565 0 8.258 3.698 8.258 8.258s-3.694 8.258-8.259 8.258z" fill="#fff"/><path d="m156.903 144.173c-4.565 0-8.298-3.698-8.298-8.258s3.653-8.258 8.218-8.258h.081c4.565 0 8.258 3.698 8.258 8.258-.001 4.561-3.694 8.258-8.259 8.258z" fill="#fff"/><path d="m156.903 210.238c-4.565 0-8.298-3.698-8.298-8.258s3.653-8.258 8.218-8.258h.081c4.565 0 8.258 3.698 8.258 8.258s-3.694 8.258-8.259 8.258z" fill="#fff"/><path d="m156.903 177.206c-4.565 0-8.298-3.698-8.298-8.258s3.653-8.258 8.218-8.258h.081c4.565 0 8.258 3.698 8.258 8.258s-3.694 8.258-8.259 8.258z" fill="#f2f2f6"/><path d="m156.903 243.27c-4.565 0-8.298-3.698-8.298-8.258s3.653-8.258 8.218-8.258h.081c4.565 0 8.258 3.698 8.258 8.258s-3.694 8.258-8.259 8.258z" fill="#f2f2f6"/><path d="m206.532 144.173c-4.565 0-8.298-3.698-8.298-8.258s3.653-8.258 8.218-8.258h.081c4.565 0 8.258 3.698 8.258 8.258-.001 4.561-3.694 8.258-8.259 8.258z" fill="#f2f2f6"/><path d="m206.532 210.238c-4.565 0-8.298-3.698-8.298-8.258s3.653-8.258 8.218-8.258h.081c4.565 0 8.258 3.698 8.258 8.258s-3.694 8.258-8.259 8.258z" fill="#f2f2f6"/><path d="m206.532 177.206c-4.565 0-8.298-3.698-8.298-8.258s3.653-8.258 8.218-8.258h.081c4.565 0 8.258 3.698 8.258 8.258s-3.694 8.258-8.259 8.258z" fill="#fff"/><path d="m206.532 243.27c-4.565 0-8.298-3.698-8.298-8.258s3.653-8.258 8.218-8.258h.081c4.565 0 8.258 3.698 8.258 8.258s-3.694 8.258-8.259 8.258z" fill="#fff"/><path d="m3 360.333 17.26 13.639h491.74v-47.189h-495.484z" fill="#f2f2f6"/><path d="m0 326.783v47.189h20.26c-2.401-5.82-3.743-12.189-3.743-18.876v-28.314h-16.517z" fill="#e1e1e6"/></g>
  </symbol>
  <symbol id="add" viewBox="0 0 496 496">
    <g>
      <g>
        <path d="M488,240H256V8c0-4.418-3.582-8-8-8s-8,3.582-8,8v232H8c-4.418,0-8,3.582-8,8s3.582,8,8,8h232v232c0,4.418,3.582,8,8,8
          s8-3.582,8-8V256h232c4.418,0,8-3.582,8-8S492.418,240,488,240z"/>
      </g>
    </g>
    <g></g>
    <g></g>
    <g></g>
    <g></g>
    <g></g>
    <g></g>
    <g></g>
    <g></g>
    <g></g>
    <g></g>
    <g></g>
    <g></g>
    <g></g>
    <g></g>
    <g></g>
  </symbol>
  <symbol id="edit-data" viewBox="0 0 16 16">
    <g>
      <path d="M2 11.5002V14.0002H4.5L11.8733 6.62687L9.37333 4.12687L2 11.5002ZM13.8067 4.69354C14.0667 4.43354 14.0667 4.01354 13.8067 3.75354L12.2467 2.19354C11.9867 1.93354 11.5667 1.93354 11.3067 2.19354L10.0867 3.41354L12.5867 5.91354L13.8067 4.69354Z"/>
    </g>
  </symbol>
  <symbol id="image" viewBox="0 0 32 32">
    <g>
      <path d="M28 25.3333V6.66667C28 5.2 26.8 4 25.3333 4H6.66667C5.2 4 4 5.2 4 6.66667V25.3333C4 26.8 5.2 28 6.66667 28H25.3333C26.8 28 28 26.8 28 25.3333ZM11.3333 18L14.6667 22.0133L19.3333 16L25.3333 24H6.66667L11.3333 18Z"/>
    </g>
  </symbol>
  
</svg>