<?xml version="1.0" encoding="iso-8859-1"?><svg viewBox="0 0 512 512" xmlns="http://www.w3.org/2000/svg" xmlns:xlink="http://www.w3.org/1999/xlink"><style>:root>svg{display:none}:root>svg:target{display:block}</style><svg viewBox="0 0 496 496" id="add" xmlns="http://www.w3.org/2000/svg"><path d="M488 240H256V8a8 8 0 00-16 0v232H8a8 8 0 000 16h232v232a8 8 0 0016 0V256h232a8 8 0 000-16z"/></svg><svg viewBox="0 0 512 512" id="categories" xmlns="http://www.w3.org/2000/svg"><path d="M128 40a88 88 0 1088 88 88.1 88.1 0 00-88-88zm0 160a72 72 0 1172-72 72.081 72.081 0 01-72 72z"/><path d="M144 112a8 8 0 000-16h-8a8 8 0 00-16 0h-8a8 8 0 00-8 8v24a8 8 0 008 8h24v8h-24a8 8 0 000 16h8a8 8 0 0016 0h8a8 8 0 008-8v-24a8 8 0 00-8-8h-24v-8z"/><path d="M220 8H36A28.032 28.032 0 008 36v184a28.032 28.032 0 0028 28h184a28.032 28.032 0 0028-28V36a28.032 28.032 0 00-28-28zm12 212a12.013 12.013 0 01-12 12H36a12.013 12.013 0 01-12-12V36a12.013 12.013 0 0112-12h184a12.013 12.013 0 0112 12zM476 8H292a28.032 28.032 0 00-28 28v184a28.032 28.032 0 0028 28h184a28.032 28.032 0 0028-28V36a28.032 28.032 0 00-28-28zm12 212a12.013 12.013 0 01-12 12H292a12.013 12.013 0 01-12-12V36a12.013 12.013 0 0112-12h184a12.013 12.013 0 0112 12zM220 264H36a28.032 28.032 0 00-28 28v184a28.032 28.032 0 0028 28h184a28.032 28.032 0 0028-28V292a28.032 28.032 0 00-28-28zm12 212a12.013 12.013 0 01-12 12H36a12.013 12.013 0 01-12-12V292a12.013 12.013 0 0112-12h184a12.013 12.013 0 0112 12zM476 264H292a28.031 28.031 0 00-28 28v184a28.031 28.031 0 0028 28h184a28.031 28.031 0 0028-28V292a28.031 28.031 0 00-28-28zm12 212a12.01 12.01 0 01-12 12H292a12.01 12.01 0 01-12-12V292a12.01 12.01 0 0112-12h184a12.01 12.01 0 0112 12z"/><path d="M439.972 359.335A8 8 0 00432 352h-16v-12a28.032 28.032 0 00-28-28h-8a28.032 28.032 0 00-28 28v12h-16a8 8 0 00-7.972 7.335l-8 96A8 8 0 00328 464h112a8 8 0 007.972-8.665zM368 340a12.013 12.013 0 0112-12h8a12.013 12.013 0 0112 12v12h-32zm-31.306 108l6.667-80H352v8a8 8 0 0016 0v-8h32v8a8 8 0 0016 0v-8h8.639l6.667 80z"/></svg><svg fill="none" viewBox="0 0 14 11" id="check" xmlns="http://www.w3.org/2000/svg"><path d="M5 7.588L2.306 4.894 2.2 4.788l-.106.106-.933.933-.107.106.107.106 3.733 3.734.106.106.106-.106 8-8 .106-.106-.106-.106-.933-.934-.106-.106-.107.106L5 7.587z" fill="#fff" stroke="#fff" stroke-width=".3"/></svg><svg viewBox="0 0 490.688 490.688" id="down-arrow" xmlns="http://www.w3.org/2000/svg"><path d="M472.328 120.529L245.213 347.665 18.098 120.529c-4.237-4.093-10.99-3.975-15.083.262-3.992 4.134-3.992 10.687 0 14.82l234.667 234.667c4.165 4.164 10.917 4.164 15.083 0l234.667-234.667c4.237-4.093 4.354-10.845.262-15.083-4.093-4.237-10.845-4.354-15.083-.262-.089.086-.176.173-.262.262l-.021.001z" fill="#ffc107"/><path d="M245.213 373.415a10.663 10.663 0 01-7.552-3.115L2.994 135.633c-4.093-4.237-3.975-10.99.262-15.083 4.134-3.992 10.687-3.992 14.82 0l227.136 227.115 227.115-227.136c4.093-4.237 10.845-4.354 15.083-.262 4.237 4.093 4.354 10.845.262 15.083-.086.089-.173.176-.262.262L252.744 370.279a10.672 10.672 0 01-7.531 3.136z"/></svg><svg viewBox="0 0 24 24" id="edit" xmlns="http://www.w3.org/2000/svg"><path d="M11.894 24a.5.5 0 01-.491-.597l.707-3.535a.49.49 0 01.137-.256l7.778-7.778a1.503 1.503 0 012.121 0l1.414 1.414a1.501 1.501 0 010 2.121l-7.778 7.778a.497.497 0 01-.256.137l-3.535.707a.53.53 0 01-.097.009zm1.168-3.789l-.53 2.651 2.651-.53 7.671-7.671a.5.5 0 000-.707L21.44 12.54a.5.5 0 00-.707 0zm2.367 2.582h.01zM9.5 21h-7A2.502 2.502 0 010 18.5v-13C0 4.121 1.121 3 2.5 3h2a.5.5 0 010 1h-2C1.673 4 1 4.673 1 5.5v13c0 .827.673 1.5 1.5 1.5h7a.5.5 0 010 1zM16.5 12a.5.5 0 01-.5-.5v-6c0-.827-.673-1.5-1.5-1.5h-2a.5.5 0 010-1h2C15.879 3 17 4.121 17 5.5v6a.5.5 0 01-.5.5z"/><path d="M11.5 6h-6C4.673 6 4 5.327 4 4.5v-2a.5.5 0 01.5-.5h1.55C6.282.86 7.293 0 8.5 0s2.218.86 2.45 2h1.55a.5.5 0 01.5.5v2c0 .827-.673 1.5-1.5 1.5zM5 3v1.5c0 .275.225.5.5.5h6c.275 0 .5-.225.5-.5V3h-1.5a.5.5 0 01-.5-.5C10 1.673 9.327 1 8.5 1S7 1.673 7 2.5a.5.5 0 01-.5.5zM13.5 9h-10a.5.5 0 010-1h10a.5.5 0 010 1zM13.5 12h-10a.5.5 0 010-1h10a.5.5 0 010 1zM13.5 15h-10a.5.5 0 010-1h10a.5.5 0 010 1z"/></svg><svg fill="none" viewBox="0 0 16 16" id="edit-data" xmlns="http://www.w3.org/2000/svg"><path d="M2 11.5V14h2.5l7.373-7.373-2.5-2.5L2 11.5zm11.807-6.806c.26-.26.26-.68 0-.94l-1.56-1.56a.664.664 0 00-.94 0l-1.22 1.22 2.5 2.5 1.22-1.22z" fill="#C2CFE0"/></svg><svg viewBox="0 0 512 512" id="file" xmlns="http://www.w3.org/2000/svg"><path d="M32 456c.025 22.081 17.919 39.975 40 40h296c61.851.006 111.996-50.129 112.002-111.98.004-43.264-24.912-82.66-64.002-101.199V120a8 8 0 00-2.343-5.657l-96-96A8 8 0 00312 16H72c-22.081.025-39.975 17.919-40 40zm432-72c0 53.019-42.981 96-96 96s-96-42.981-96-96 42.981-96 96-96c52.995.06 95.94 43.005 96 96zM320 43.313L388.687 112H344c-13.249-.015-23.985-10.751-24-24zM48 56c.015-13.248 10.752-23.985 24-24h232v56c.025 22.081 17.919 39.975 40 40h56v148.666c-59.265-17.683-121.643 16.025-139.327 75.289-14.627 49.023 5.828 101.725 49.696 128.045H72c-13.248-.015-23.985-10.752-24-24z"/><path d="M160 168a8 8 0 008 8h192a8 8 0 000-16H168a8 8 0 00-8 8zM88 224h160a8 8 0 000-16H88a8 8 0 000 16zM280 256h-64a8 8 0 000 16h64a8 8 0 000-16zM88 320h144a8 8 0 000-16H88a8 8 0 000 16zM88 176h48a8 8 0 000-16H88a8 8 0 000 16zM360 208h-80a8 8 0 000 16h80a8 8 0 000-16zM88 272h96a8 8 0 000-16H88a8 8 0 000 16zM216 400h-32a8 8 0 000 16h32a8 8 0 000-16zM88 416h64a8 8 0 000-16H88a8 8 0 000 16zM88 368h48a8 8 0 000-16H88a8 8 0 000 16zM88 128h96a8 8 0 000-16H88a8 8 0 000 16zM216 352h-48a8 8 0 000 16h48a8 8 0 000-16zM322.879 329.854a8 8 0 00-1.025 11.268s30.333 36.449 39.97 47.964c.971 1.161 2.556 2.512 5.331 2.87.28.036.563.044.845.044h56a8 8 0 000-16h-52.253l-37.6-45.122a8 8 0 00-11.268-1.024z"/></svg><svg fill="none" viewBox="0 0 32 32" id="image" xmlns="http://www.w3.org/2000/svg"><path d="M28 25.333V6.667C28 5.2 26.8 4 25.333 4H6.667A2.675 2.675 0 004 6.667v18.666C4 26.8 5.2 28 6.667 28h18.666C26.8 28 28 26.8 28 25.333zM11.333 18l3.334 4.013L19.333 16l6 8H6.667l4.666-6z" fill="#C2CFE0"/></svg><svg fill="none" viewBox="0 0 15 15" id="income" xmlns="http://www.w3.org/2000/svg"><path d="M9.997 3.651l1.336 1.336-2.847 2.847L6.153 5.5 1.83 9.83l.823.822 3.5-3.5 2.333 2.333 3.675-3.669 1.336 1.336v-3.5h-3.5z" fill="#01D066"/></svg><svg viewBox="0 0 512.005 512" id="logout" xmlns="http://www.w3.org/2000/svg"><path d="M320 277.336c-11.797 0-21.332 9.559-21.332 21.332v85.336c0 11.754-9.559 21.332-21.336 21.332h-64v-320c0-18.219-11.605-34.496-29.055-40.555l-6.316-2.113h99.371c11.777 0 21.336 9.578 21.336 21.336v64c0 11.773 9.535 21.332 21.332 21.332s21.332-9.559 21.332-21.332v-64c0-35.285-28.715-64-64-64H48c-.812 0-1.492.363-2.281.469-1.028-.086-2.008-.47-3.051-.47C19.137.004 0 19.138 0 42.669v384c0 18.219 11.605 34.496 29.055 40.555L157.44 510.02c4.352 1.343 8.68 1.984 13.227 1.984 23.531 0 42.664-19.137 42.664-42.668v-21.332h64c35.285 0 64-28.715 64-64v-85.336c0-11.773-9.535-21.332-21.332-21.332zm0 0"/><path d="M505.75 198.254l-85.336-85.332a21.33 21.33 0 00-23.25-4.633C389.207 111.598 384 119.383 384 128.004v64h-85.332c-11.777 0-21.336 9.555-21.336 21.332 0 11.777 9.559 21.332 21.336 21.332H384v64c0 8.621 5.207 16.406 13.164 19.715a21.335 21.335 0 0023.25-4.63l85.336-85.335c8.34-8.34 8.34-21.824 0-30.164zm0 0"/></svg><svg viewBox="0 0 511.999 511.999" id="money" xmlns="http://www.w3.org/2000/svg"><path d="M316.209 117.615h.598c.001 0-.465-1.17-.598 0zM171.747 117.615h.598c-.133-1.17-.598 0-.598 0z"/><path d="M460.496 154.447a23.52 23.52 0 00-14.761-10.506l-32.457-7.458 14.986-4.195c12.417-3.475 19.898-16.737 16.417-29.177-3.476-12.417-16.736-19.896-29.178-16.417l-69.876 19.557A23.83 23.83 0 00338.105 98c14.181-26.391 34.612-71.176 34.612-90.443 0-4.699-4.442-8.335-9.051-7.406-27.731 5.602-53.586 8.187-79.011 7.91-26.134-.287-58.659-3.533-79.095-7.893-6.318-1.348-11.388 5.722-8.056 11.276 4.98 8.3 8.031 17.076 9.708 25.921-25.649.786-52.248-2.322-72.38-12.389-5.423-2.712-11.824 2.033-10.832 8 6.332 37.987 19.106 60.259 31.913 77.086h-.284c-13.053 0-23.673 10.62-23.673 23.673 0 12.005 8.985 21.944 20.581 23.465-8.453 14.158-20.525 27.591-33.209 41.687-26.973 29.976-57.546 63.952-67.832 118.811-4.922 26.249-4.758 50.81.489 73.002 4.898 20.718 14.227 39.471 27.726 55.737 17.919 21.592 42.538 38.345 73.172 49.797 27.595 10.315 59.198 15.767 91.394 15.767 32.196 0 63.8-5.452 91.394-15.767 30.634-11.452 55.253-28.206 73.172-49.797 13.499-16.266 22.828-35.018 27.726-55.737 5.246-22.192 5.411-46.754.489-73.002-10.286-54.858-40.858-88.834-67.831-118.81-9.157-10.177-17.869-19.88-25.173-29.728l91.079 20.926c9.649 2.217 19.931-2.004 25.261-10.342 4.878-7.634 4.907-17.629.102-25.297zM284.489 23.17c23.263.254 46.807-1.78 71.676-6.212-4.56 18.643-19.203 51.801-33.092 77.06-9.625.725-17.659 7.227-20.637 16.043H281.46c-.474-1.021-.999-2.14-1.584-3.383-6.486-13.788-19.984-42.478-19.984-66.886 0-4.692-4.431-8.33-9.037-7.408-8.792 1.759-18.465 3.182-28.53 4.074-1.055-6.304-2.692-12.618-5.072-18.828 20.3 3.142 45.871 5.305 67.236 5.54zm48.94 94.445v32.236c0 4.721-3.841 8.563-8.563 8.563s-8.563-3.841-8.563-8.563v-32.236c0-4.722 3.841-8.563 8.563-8.563s8.563 3.842 8.563 8.563zM141.612 44.107c18.888 6.447 42.123 9.306 67.216 8.424l14.974-.946a284.695 284.695 0 0021.448-2.802c2.356 23.374 13.034 47.392 19.522 61.278H175.195a7.726 7.726 0 00-.556-.773c-12.637-15.203-25.46-32.788-33.027-65.181zm216.382 164.886c25.645 28.498 54.708 60.798 64.214 111.487 8.747 46.652.338 85.782-24.993 116.303-31.234 37.635-88.407 60.105-152.937 60.105S122.574 474.419 91.34 436.784c-25.331-30.521-33.739-69.651-24.993-116.303 9.505-50.69 38.57-82.991 64.214-111.488 15.333-17.041 29.819-33.159 39.103-51.586h18.452a7.554 7.554 0 007.555-7.555 7.554 7.554 0 00-7.555-7.555h-32.488c-4.722 0-8.563-3.841-8.563-8.563s3.841-8.563 8.563-8.563h145.564v17.125h-77.064a7.555 7.555 0 000 15.11h78.307c3.161 9.358 12.018 16.118 22.43 16.118 1.203 0 2.383-.092 3.539-.265 8.432 12.197 18.71 23.644 29.59 35.734zm-9.454-87.866l71.035-19.881c4.498-1.261 9.298 1.449 10.554 5.938 1.258 4.499-1.447 9.297-5.938 10.553l-40.596 11.362a7.506 7.506 0 00-.954.346l-34.101-7.835v-.483zm100.239 47.802c-1.058 4.602-5.654 7.487-10.263 6.428l-90.451-20.782a23.73 23.73 0 00.474-4.725v-12.738l93.811 21.554c4.547 1.045 7.474 5.712 6.429 10.263z"/><path d="M292.631 310.526c10.831 0 19.644-8.812 19.644-19.644v-12.088c0-28.268-21.084-51.702-48.354-55.4v-13.101c0-10.831-8.812-19.644-19.644-19.644-10.831 0-19.644 8.812-19.644 19.644v14.101c-27.997 6.245-48.354 31.134-48.354 60.444 0 34.161 27.792 61.953 61.953 61.953h12.088c12.497 0 22.666 10.167 22.666 22.666s-10.168 22.666-22.666 22.666h-18.133c-9.166 0-16.622-7.457-16.622-16.622 0-10.831-8.812-19.644-19.644-19.644-10.831 0-19.644 8.812-19.644 19.644 0 28.268 21.084 51.702 48.354 55.4v13.101c0 10.831 8.812 19.644 19.644 19.644 10.831 0 19.644-8.812 19.644-19.644v-14.101c27.997-6.245 48.354-31.134 48.354-60.444 0-34.161-27.792-61.953-61.953-61.953h-12.088c-12.497 0-22.666-10.167-22.666-22.666s10.168-22.666 22.666-22.666h18.133c9.166 0 16.622 7.457 16.622 16.622v12.088c0 10.831 8.813 19.644 19.644 19.644zm-36.265-63.464h-18.133c-20.83 0-37.776 16.946-37.776 37.776 0 20.83 16.946 37.776 37.776 37.776h12.088c25.83 0 46.843 21.014 46.843 46.843 0 23.899-17.899 43.908-41.632 46.545a7.555 7.555 0 00-6.721 7.509v20.491c0 2.499-2.034 4.533-4.533 4.533s-4.533-2.034-4.533-4.533v-20.147a7.554 7.554 0 00-7.555-7.555c-22.497 0-40.798-18.302-40.798-40.798 0-2.499 2.034-4.533 4.533-4.533s4.533 2.034 4.533 4.533c0 17.497 14.235 31.732 31.732 31.732h18.133c20.83 0 37.776-16.946 37.776-37.776s-16.946-37.776-37.776-37.776h-12.088c-25.83 0-46.843-21.014-46.843-46.843 0-23.899 17.899-43.908 41.632-46.545a7.555 7.555 0 006.721-7.509v-20.491c0-2.499 2.034-4.533 4.533-4.533s4.533 2.034 4.533 4.533v20.147a7.554 7.554 0 007.555 7.555c22.497 0 40.798 18.302 40.798 40.798v12.088c0 2.499-2.034 4.533-4.533 4.533s-4.533-2.034-4.533-4.533v-12.088c0-17.497-14.235-31.732-31.732-31.732z"/></svg><svg fill="none" viewBox="0 0 15 15" id="outcome" xmlns="http://www.w3.org/2000/svg"><path d="M9.83 11.047l1.336-1.336L8.32 6.865 5.986 9.198 1.664 4.87l.822-.823 3.5 3.5L8.32 5.214l3.675 3.669 1.335-1.336v3.5h-3.5z" fill="#FD3758"/></svg><svg viewBox="0 0 458.186 458.186" id="refresh" xmlns="http://www.w3.org/2000/svg"><path d="M445.651 201.95c-1.485-9.308-10.235-15.649-19.543-14.164-9.308 1.485-15.649 10.235-14.164 19.543.016.102.033.203.051.304 17.38 102.311-51.47 199.339-153.781 216.719-102.311 17.38-199.339-51.47-216.719-153.781S92.966 71.232 195.276 53.852c62.919-10.688 126.962 11.29 170.059 58.361l-75.605 25.19c-8.944 2.976-13.781 12.638-10.806 21.582l.003.007c2.976 8.944 12.638 13.781 21.582 10.806l.007-.002 102.4-34.133a17.068 17.068 0 0011.674-16.196v-102.4C414.59 7.641 406.949 0 397.523 0s-17.067 7.641-17.067 17.067v62.344C292.564-4.185 153.545-.702 69.949 87.19s-80.114 226.911 7.779 310.508 226.911 80.114 310.508-7.779a219.633 219.633 0 0057.415-187.969z"/></svg><svg viewBox="0 0 512 512" id="russia" xmlns="http://www.w3.org/2000/svg"><path fill="#f0f0f0" d="M0 85.33v341.332h512V85.33z"/><path fill="#0052b4" d="M0 85.333h512V426.67H0z"/><path fill="#f0f0f0" d="M0 85.333h512v113.775H0z"/><path fill="#d80027" d="M0 312.884h512v113.775H0z"/></svg><svg viewBox="0 0 512 512" id="to-do-list" xmlns="http://www.w3.org/2000/svg"><path d="M143.194 218.977l46.751-56.244a7.5 7.5 0 00-.974-10.562 7.501 7.501 0 00-10.562.974l-40.074 48.211-8.759-14.228a7.5 7.5 0 00-12.774 7.863l14.236 23.123c2.692 4.37 8.878 4.807 12.156.863zM116.804 293.991l14.236 23.123c2.69 4.37 8.876 4.807 12.154.862l46.751-56.244a7.5 7.5 0 00-11.536-9.588l-40.074 48.211-8.759-14.228a7.499 7.499 0 10-12.772 7.864zM116.804 393.658l14.236 23.123c2.69 4.37 8.876 4.807 12.154.862l46.751-56.244a7.5 7.5 0 00-11.536-9.588l-40.074 48.211-8.759-14.228a7.5 7.5 0 10-12.772 7.864z"/><path d="M448.5 423.405a7.5 7.5 0 00-7.5 7.5V485.5c0 6.341-5.159 11.5-11.5 11.5h-347c-6.341 0-11.5-5.159-11.5-11.5V156.809c0-4.143-3.358-7.5-7.5-7.5s-7.5 3.357-7.5 7.5V485.5c0 14.612 11.888 26.5 26.5 26.5h347c14.612 0 26.5-11.888 26.5-26.5v-54.595a7.5 7.5 0 00-7.5-7.5zM429.5 57.791h-36.688V26.8c0-14.777-12.022-26.8-26.8-26.8s-26.8 12.022-26.8 26.8v30.991H282.8V26.8C282.8 12.022 270.777 0 256 0s-26.8 12.022-26.8 26.8v30.991h-56.413V26.8c0-14.777-12.022-26.8-26.8-26.8-14.777 0-26.8 12.022-26.8 26.8v30.991H82.5c-14.612 0-26.5 11.888-26.5 26.5v37.518c0 4.143 3.358 7.5 7.5 7.5s7.5-3.357 7.5-7.5V84.291c0-6.341 5.159-11.5 11.5-11.5h36.687V84.7c0 14.777 12.022 26.8 26.8 26.8s26.8-12.022 26.8-26.8V72.791H229.2V84.7c0 14.777 12.022 26.8 26.8 26.8s26.8-12.022 26.8-26.8V72.791h56.413V84.7c0 14.777 12.022 26.8 26.8 26.8 14.777 0 26.8-12.022 26.8-26.8V72.791H429.5c6.341 0 11.5 5.159 11.5 11.5v311.614c0 4.143 3.358 7.5 7.5 7.5s7.5-3.357 7.5-7.5V84.291c0-14.612-11.888-26.5-26.5-26.5zM157.788 84.7c0 6.507-5.293 11.8-11.8 11.8-6.506 0-11.8-5.293-11.8-11.8V26.8c0-6.507 5.293-11.8 11.8-11.8s11.8 5.293 11.8 11.8zm110.012 0c0 6.507-5.293 11.8-11.8 11.8s-11.8-5.293-11.8-11.8V26.8c0-6.507 5.293-11.8 11.8-11.8s11.8 5.293 11.8 11.8zm110.013 0c0 6.507-5.293 11.8-11.8 11.8s-11.8-5.293-11.8-11.8V26.8c0-6.507 5.293-11.8 11.8-11.8 6.506 0 11.8 5.293 11.8 11.8z"/><path d="M221.739 225.183h158c12.958 0 23.5-10.542 23.5-23.5s-10.542-23.5-23.5-23.5h-158c-12.958 0-23.5 10.542-23.5 23.5s10.542 23.5 23.5 23.5zm0-32h158c4.687 0 8.5 3.813 8.5 8.5s-3.813 8.5-8.5 8.5h-158c-4.687 0-8.5-3.813-8.5-8.5s3.813-8.5 8.5-8.5zM221.739 324.396h158c12.958 0 23.5-10.542 23.5-23.5s-10.542-23.5-23.5-23.5h-158c-12.958 0-23.5 10.542-23.5 23.5s10.542 23.5 23.5 23.5zm0-32h158c4.687 0 8.5 3.813 8.5 8.5s-3.813 8.5-8.5 8.5h-158c-4.687 0-8.5-3.813-8.5-8.5s3.813-8.5 8.5-8.5zM221.739 423.608h158c12.958 0 23.5-10.542 23.5-23.5s-10.542-23.5-23.5-23.5h-158c-12.958 0-23.5 10.542-23.5 23.5s10.542 23.5 23.5 23.5zm0-32h158c4.687 0 8.5 3.813 8.5 8.5s-3.813 8.5-8.5 8.5h-158c-4.687 0-8.5-3.813-8.5-8.5s3.813-8.5 8.5-8.5z"/></svg><svg fill="none" viewBox="0 0 14 14" id="toggle" xmlns="http://www.w3.org/2000/svg"><path fill-rule="evenodd" clip-rule="evenodd" d="M2 0a2 2 0 00-2 2v10a2 2 0 002 2h10a2 2 0 002-2V2a2 2 0 00-2-2H2zm3 2a1 1 0 00-1 1v8a1 1 0 102 0V3a1 1 0 00-1-1z" fill="#C2CFE0"/></svg><svg fill="none" viewBox="0 0 16 16" id="trash" xmlns="http://www.w3.org/2000/svg"><path d="M4 12.667C4 13.4 4.6 14 5.333 14h5.334C11.4 14 12 13.4 12 12.667v-8H4v8zm8.667-10h-2.334L9.667 2H6.333l-.666.667H3.333V4h9.334V2.667z" fill="#C2CFE0"/></svg><svg viewBox="0 0 512 512" id="united-states" xmlns="http://www.w3.org/2000/svg"><path d="M495.484 90.839H264.258L9 267.5v146.833h486.484L512 404.645v-30.673l-10.75-10.222v-29l10.75-7.967v-47.189l-9.667-9.261v-29.667l9.667-8.262v-47.188l-9.667-8.549v-26L512 138.028v-30.673c0-9.122-7.395-16.516-16.516-16.516z" fill="#e5646e"/><path d="M256.333 138.028H512v47.189H256.333zM256 232.405l8.258 47.189H512v-47.189z" fill="#f2f2f6"/><path d="M16.516 355.097V271L0 279.594v47.189l7 5.967v31l-7 10.222v30.673c0 9.122 7.395 16.516 16.516 16.516h478.968c9.121 0 16.516-7.395 16.516-16.516H66.065c-27.365 0-49.549-22.183-49.549-49.548z" fill="#db4655"/><path d="M264.258 90.839H16.516L6 107.355l10.516 172.239h247.742z" fill="#5055a0"/><path d="M16.516 90.839C7.395 90.839 0 98.233 0 107.355v172.239h16.516z" fill="#3f3f8f"/><path d="M33.113 127.657c-4.565 0-8.298-3.698-8.298-8.258s3.653-8.258 8.218-8.258h.081c4.565 0 8.258 3.698 8.258 8.258s-3.695 8.258-8.259 8.258zM33.113 193.722c-4.565 0-8.298-3.698-8.298-8.258s3.653-8.258 8.218-8.258h.081c4.565 0 8.258 3.698 8.258 8.258s-3.695 8.258-8.259 8.258zM33.113 259.786c-4.565 0-8.298-3.698-8.298-8.258s3.653-8.258 8.218-8.258h.081c4.565 0 8.258 3.698 8.258 8.258s-3.695 8.258-8.259 8.258z" fill="#fff"/><path d="M33.113 160.69c-4.565 0-8.298-3.698-8.298-8.258s3.653-8.258 8.218-8.258h.081a8.256 8.256 0 018.258 8.258 8.258 8.258 0 01-8.259 8.258zM33.113 226.754c-4.565 0-8.298-3.698-8.298-8.258s3.653-8.258 8.218-8.258h.081c4.565 0 8.258 3.698 8.258 8.258s-3.695 8.258-8.259 8.258z" fill="#f2f2f6"/><path d="M231.306 127.657c-4.565 0-8.298-3.698-8.298-8.258s3.653-8.258 8.218-8.258h.081c4.565 0 8.258 3.698 8.258 8.258s-3.694 8.258-8.259 8.258zM231.306 193.722c-4.565 0-8.298-3.698-8.298-8.258s3.653-8.258 8.218-8.258h.081c4.565 0 8.258 3.698 8.258 8.258s-3.694 8.258-8.259 8.258zM231.306 259.786c-4.565 0-8.298-3.698-8.298-8.258s3.653-8.258 8.218-8.258h.081c4.565 0 8.258 3.698 8.258 8.258s-3.694 8.258-8.259 8.258z" fill="#fff"/><g fill="#f2f2f6"><path d="M231.306 160.69c-4.565 0-8.298-3.698-8.298-8.258s3.653-8.258 8.218-8.258h.081c4.565 0 8.258 3.698 8.258 8.258s-3.694 8.258-8.259 8.258zM231.306 226.754c-4.565 0-8.298-3.698-8.298-8.258s3.653-8.258 8.218-8.258h.081c4.565 0 8.258 3.698 8.258 8.258s-3.694 8.258-8.259 8.258zM82.661 127.657c-4.565 0-8.298-3.698-8.298-8.258s3.653-8.258 8.218-8.258h.081c4.565 0 8.258 3.698 8.258 8.258s-3.694 8.258-8.259 8.258zM82.661 193.722c-4.565 0-8.298-3.698-8.298-8.258s3.653-8.258 8.218-8.258h.081c4.565 0 8.258 3.698 8.258 8.258s-3.694 8.258-8.259 8.258zM82.661 259.786c-4.565 0-8.298-3.698-8.298-8.258s3.653-8.258 8.218-8.258h.081c4.565 0 8.258 3.698 8.258 8.258s-3.694 8.258-8.259 8.258z"/></g><path d="M82.661 160.69c-4.565 0-8.298-3.698-8.298-8.258s3.653-8.258 8.218-8.258h.081a8.256 8.256 0 018.258 8.258 8.257 8.257 0 01-8.259 8.258zM82.661 226.754c-4.565 0-8.298-3.698-8.298-8.258s3.653-8.258 8.218-8.258h.081c4.565 0 8.258 3.698 8.258 8.258s-3.694 8.258-8.259 8.258zM57.887 144.173c-4.565 0-8.298-3.698-8.298-8.258s3.653-8.258 8.218-8.258h.081a8.256 8.256 0 018.258 8.258 8.257 8.257 0 01-8.259 8.258zM57.887 210.238c-4.565 0-8.298-3.698-8.298-8.258s3.653-8.258 8.218-8.258h.081c4.565 0 8.258 3.698 8.258 8.258s-3.694 8.258-8.259 8.258z" fill="#fff"/><path d="M57.887 177.206c-4.565 0-8.298-3.698-8.298-8.258s3.653-8.258 8.218-8.258h.081c4.565 0 8.258 3.698 8.258 8.258s-3.694 8.258-8.259 8.258zM57.887 243.27c-4.565 0-8.298-3.698-8.298-8.258s3.653-8.258 8.218-8.258h.081c4.565 0 8.258 3.698 8.258 8.258s-3.694 8.258-8.259 8.258z" fill="#f2f2f6"/><path d="M132.21 127.657c-4.565 0-8.298-3.698-8.298-8.258s3.653-8.258 8.218-8.258h.081c4.565 0 8.258 3.698 8.258 8.258s-3.695 8.258-8.259 8.258zM132.21 193.722c-4.565 0-8.298-3.698-8.298-8.258s3.653-8.258 8.218-8.258h.081c4.565 0 8.258 3.698 8.258 8.258s-3.695 8.258-8.259 8.258zM132.21 259.786c-4.565 0-8.298-3.698-8.298-8.258s3.653-8.258 8.218-8.258h.081c4.565 0 8.258 3.698 8.258 8.258s-3.695 8.258-8.259 8.258z" fill="#fff"/><path d="M132.21 160.69c-4.565 0-8.298-3.698-8.298-8.258s3.653-8.258 8.218-8.258h.081a8.256 8.256 0 018.258 8.258 8.258 8.258 0 01-8.259 8.258zM132.21 226.754c-4.565 0-8.298-3.698-8.298-8.258s3.653-8.258 8.218-8.258h.081c4.565 0 8.258 3.698 8.258 8.258s-3.695 8.258-8.259 8.258zM107.435 144.173c-4.565 0-8.298-3.698-8.298-8.258s3.653-8.258 8.218-8.258h.081a8.256 8.256 0 018.258 8.258 8.256 8.256 0 01-8.259 8.258zM107.435 210.238c-4.565 0-8.298-3.698-8.298-8.258s3.653-8.258 8.218-8.258h.081c4.565 0 8.258 3.698 8.258 8.258s-3.694 8.258-8.259 8.258z" fill="#f2f2f6"/><path d="M107.435 177.206c-4.565 0-8.298-3.698-8.298-8.258s3.653-8.258 8.218-8.258h.081c4.565 0 8.258 3.698 8.258 8.258s-3.694 8.258-8.259 8.258zM107.435 243.27c-4.565 0-8.298-3.698-8.298-8.258s3.653-8.258 8.218-8.258h.081c4.565 0 8.258 3.698 8.258 8.258s-3.694 8.258-8.259 8.258z" fill="#fff"/><path d="M181.677 127.657c-4.565 0-8.298-3.698-8.298-8.258s3.653-8.258 8.218-8.258h.081c4.565 0 8.258 3.698 8.258 8.258s-3.694 8.258-8.259 8.258zM181.677 193.722c-4.565 0-8.298-3.698-8.298-8.258s3.653-8.258 8.218-8.258h.081c4.565 0 8.258 3.698 8.258 8.258s-3.694 8.258-8.259 8.258zM181.677 259.786c-4.565 0-8.298-3.698-8.298-8.258s3.653-8.258 8.218-8.258h.081c4.565 0 8.258 3.698 8.258 8.258s-3.694 8.258-8.259 8.258z" fill="#f2f2f6"/><path d="M181.677 160.69c-4.565 0-8.298-3.698-8.298-8.258s3.653-8.258 8.218-8.258h.081a8.256 8.256 0 018.258 8.258 8.257 8.257 0 01-8.259 8.258zM181.677 226.754c-4.565 0-8.298-3.698-8.298-8.258s3.653-8.258 8.218-8.258h.081c4.565 0 8.258 3.698 8.258 8.258s-3.694 8.258-8.259 8.258zM156.903 144.173c-4.565 0-8.298-3.698-8.298-8.258s3.653-8.258 8.218-8.258h.081a8.256 8.256 0 018.258 8.258 8.257 8.257 0 01-8.259 8.258zM156.903 210.238c-4.565 0-8.298-3.698-8.298-8.258s3.653-8.258 8.218-8.258h.081c4.565 0 8.258 3.698 8.258 8.258s-3.694 8.258-8.259 8.258z" fill="#fff"/><path d="M156.903 177.206c-4.565 0-8.298-3.698-8.298-8.258s3.653-8.258 8.218-8.258h.081c4.565 0 8.258 3.698 8.258 8.258s-3.694 8.258-8.259 8.258zM156.903 243.27c-4.565 0-8.298-3.698-8.298-8.258s3.653-8.258 8.218-8.258h.081c4.565 0 8.258 3.698 8.258 8.258s-3.694 8.258-8.259 8.258zM206.532 144.173c-4.565 0-8.298-3.698-8.298-8.258s3.653-8.258 8.218-8.258h.081a8.256 8.256 0 018.258 8.258 8.257 8.257 0 01-8.259 8.258zM206.532 210.238c-4.565 0-8.298-3.698-8.298-8.258s3.653-8.258 8.218-8.258h.081c4.565 0 8.258 3.698 8.258 8.258s-3.694 8.258-8.259 8.258z" fill="#f2f2f6"/><path d="M206.532 177.206c-4.565 0-8.298-3.698-8.298-8.258s3.653-8.258 8.218-8.258h.081c4.565 0 8.258 3.698 8.258 8.258s-3.694 8.258-8.259 8.258zM206.532 243.27c-4.565 0-8.298-3.698-8.298-8.258s3.653-8.258 8.218-8.258h.081c4.565 0 8.258 3.698 8.258 8.258s-3.694 8.258-8.259 8.258z" fill="#fff"/><path d="M3 360.333l17.26 13.639H512v-47.189H16.516z" fill="#f2f2f6"/><path d="M0 326.783v47.189h20.26a49.372 49.372 0 01-3.743-18.876v-28.314H0z" fill="#e1e1e6"/></svg><svg viewBox="0 0 490.523 490.523" id="up-arrow" xmlns="http://www.w3.org/2000/svg"><path d="M487.411 355.047L252.744 120.38c-4.165-4.164-10.917-4.164-15.083 0L2.994 355.047c-4.093 4.237-3.976 10.99.262 15.083a10.666 10.666 0 0014.821 0l227.115-227.115 227.115 227.136c4.237 4.093 10.99 3.976 15.083-.261 3.993-4.134 3.993-10.688 0-14.821l.021-.022z" fill="#ffc107"/><path d="M479.859 373.266a10.663 10.663 0 01-7.552-3.115L245.192 143.015 18.077 370.151c-4.237 4.093-10.99 3.976-15.083-.262a10.666 10.666 0 010-14.821l234.667-234.667c4.165-4.164 10.917-4.164 15.083 0l234.667 234.667c4.159 4.172 4.148 10.926-.024 15.085a10.667 10.667 0 01-7.528 3.113z"/></svg></svg>